<?xml version="1.0" standalone="no"?>
<!DOCTYPE svg PUBLIC "-//W3C//DTD SVG 20010904//EN"
 "http://www.w3.org/TR/2001/REC-SVG-20010904/DTD/svg10.dtd">
<svg version="1.0" xmlns="http://www.w3.org/2000/svg"
 width="2338.000000pt" height="2338.000000pt" viewBox="0 0 2338.000000 2338.000000"
 preserveAspectRatio="xMidYMid meet">
<metadata>
Created by potrace 1.11, written by Peter Selinger 2001-2013
</metadata>
<g transform="translate(0.000000,2338.000000) scale(0.100000,-0.100000)"
fill="#000000" stroke="none">
<path d="M12729 23296 c-2 -2 -76 -7 -164 -10 -88 -4 -173 -8 -190 -10 -16 -3
-75 -7 -130 -11 -55 -3 -116 -8 -135 -10 -19 -2 -71 -6 -114 -10 -44 -4 -87
-8 -96 -10 -9 -2 -49 -6 -89 -10 -40 -3 -82 -8 -93 -10 -11 -3 -46 -7 -77 -10
-31 -4 -63 -8 -71 -10 -8 -3 -38 -7 -66 -10 -28 -3 -59 -7 -70 -9 -20 -4 -89
-15 -139 -22 -16 -2 -41 -6 -55 -9 -14 -3 -41 -7 -60 -10 -47 -8 -80 -14 -110
-20 -14 -3 -41 -8 -60 -11 -19 -3 -78 -15 -130 -26 -52 -10 -106 -22 -120 -24
-57 -11 -338 -75 -375 -86 -22 -6 -44 -12 -50 -14 -341 -76 -1141 -335 -1450
-469 -16 -7 -81 -34 -142 -59 -62 -25 -136 -57 -165 -70 -29 -13 -93 -42 -143
-64 -89 -39 -262 -121 -380 -179 -189 -93 -533 -280 -698 -380 -48 -29 -89
-53 -91 -53 -6 0 -328 -204 -429 -272 -158 -106 -392 -271 -395 -280 -2 -4
-10 -8 -17 -8 -7 0 -15 -3 -17 -7 -1 -5 -74 -62 -161 -127 -87 -66 -164 -124
-170 -130 -7 -6 -28 -23 -49 -38 -20 -15 -42 -33 -50 -40 -7 -7 -49 -42 -93
-78 -79 -64 -177 -147 -309 -264 -38 -34 -77 -68 -86 -76 -213 -186 -695 -673
-892 -902 -11 -13 -31 -36 -46 -53 -186 -210 -363 -430 -616 -769 -57 -76
-130 -183 -290 -421 -212 -317 -321 -497 -518 -855 -76 -137 -307 -601 -358
-720 -18 -41 -46 -104 -62 -139 -60 -131 -185 -438 -233 -571 -13 -36 -42
-117 -65 -180 -23 -63 -60 -171 -81 -240 -22 -69 -44 -134 -49 -145 -5 -11
-18 -54 -30 -95 -12 -41 -35 -122 -51 -180 -17 -58 -32 -112 -34 -120 -3 -8
-22 -82 -45 -165 -22 -82 -42 -159 -44 -170 -3 -11 -18 -80 -35 -154 -17 -73
-33 -143 -36 -155 -16 -80 -45 -220 -50 -243 -26 -143 -47 -270 -65 -383 -24
-159 -28 -188 -35 -235 -12 -84 -15 -105 -21 -161 -3 -32 -8 -70 -9 -84 -19
-169 -29 -280 -40 -425 -3 -44 -8 -100 -10 -125 -26 -292 -27 -1114 -1 -1470
13 -169 18 -240 22 -275 2 -22 6 -67 9 -100 6 -79 33 -303 60 -510 14 -104 82
-501 99 -585 3 -14 15 -72 27 -130 69 -348 220 -901 360 -1320 180 -537 468
-1205 726 -1683 36 -67 76 -140 88 -162 109 -205 342 -583 522 -850 125 -186
419 -593 444 -615 3 -3 29 -36 59 -75 46 -61 290 -355 365 -440 167 -190 231
-260 385 -418 328 -338 611 -601 940 -873 494 -409 1084 -817 1595 -1104 22
-13 96 -54 165 -93 420 -236 1055 -525 1565 -712 319 -117 979 -320 1135 -348
14 -3 61 -14 105 -26 153 -39 380 -88 560 -121 61 -11 121 -22 135 -25 13 -3
42 -7 65 -10 22 -3 47 -8 55 -10 8 -2 33 -6 55 -10 22 -3 67 -10 100 -15 97
-15 122 -19 290 -39 170 -21 227 -27 430 -45 44 -5 124 -11 273 -21 412 -30
1148 -25 1572 10 41 3 100 8 130 11 121 9 281 26 425 45 44 5 97 12 118 14 76
10 123 16 152 21 35 6 68 12 110 18 54 8 159 26 185 31 14 3 41 8 60 11 78 13
439 86 490 99 30 8 154 39 275 69 121 31 267 70 325 86 58 17 110 32 115 34 6
1 30 9 55 16 25 7 50 14 55 16 38 8 453 149 602 205 406 152 712 285 1123 491
251 125 384 196 680 366 282 161 890 570 1130 761 14 11 73 58 132 104 59 46
127 99 150 118 66 53 402 340 413 353 6 6 38 35 73 64 34 30 62 57 62 62 0 4
-20 29 -44 56 -23 27 -103 117 -176 199 -136 153 -257 289 -275 309 -5 6 -44
49 -85 96 -67 75 -125 141 -155 174 -6 6 -60 67 -120 136 -61 69 -114 130
-120 136 -15 16 -130 145 -235 264 -52 58 -126 141 -165 185 -40 44 -87 98
-106 120 -19 21 -41 46 -49 55 -8 9 -45 50 -81 91 -68 77 -150 168 -205 229
-17 19 -69 78 -115 130 -46 52 -86 97 -89 100 -3 3 -35 39 -70 80 -36 41 -68
77 -71 80 -3 3 -135 151 -293 330 -159 179 -305 343 -325 365 -20 22 -68 76
-106 120 -39 44 -79 89 -90 101 -11 11 -31 34 -45 50 -14 16 -104 117 -199
224 -95 107 -201 226 -235 264 -33 38 -66 74 -71 80 -6 6 -100 112 -210 236
-110 124 -214 241 -231 260 -17 19 -73 82 -124 140 -51 58 -123 139 -160 180
-132 148 -264 296 -1160 1305 -817 920 -874 984 -969 1090 -20 22 -70 78 -111
125 -107 121 -143 161 -160 180 -8 9 -44 49 -80 90 -36 41 -74 84 -85 96 -11
11 -34 36 -50 55 -17 19 -118 133 -225 254 -107 121 -208 235 -225 254 -16 19
-41 45 -54 59 l-25 25 80 76 c112 105 333 313 354 331 10 8 75 69 145 135 70
66 142 134 160 150 17 17 92 86 165 155 74 69 166 154 204 190 38 36 102 95
140 131 39 37 87 81 106 99 40 37 226 211 298 279 27 25 98 92 158 147 60 56
127 119 149 139 50 47 273 256 374 350 41 39 105 98 141 132 36 34 79 74 95
89 17 15 88 81 159 148 215 201 394 368 456 426 19 18 93 87 164 154 71 66
137 128 148 137 10 9 80 75 156 146 75 72 151 142 167 157 29 27 204 191 289
270 72 68 260 243 296 276 19 18 67 62 105 98 39 37 127 119 195 184 69 64
144 134 167 155 23 22 92 86 154 144 61 57 132 124 158 148 72 68 253 236 286
267 17 15 89 82 160 150 72 67 146 136 165 154 40 37 182 170 524 490 45 42
112 105 150 140 38 36 86 81 107 100 66 63 262 245 280 261 10 9 80 74 156
146 76 71 152 142 168 157 17 15 82 76 145 136 63 60 129 121 145 135 17 15
66 62 110 103 44 42 109 103 145 136 36 34 121 114 190 178 69 64 147 137 174
162 l49 46 -19 22 c-62 72 -178 191 -399 414 -290 291 -445 435 -640 600 -38
32 -79 67 -90 78 -15 13 -281 227 -431 345 -43 34 -256 190 -334 245 -416 290
-801 528 -1204 743 -148 78 -586 294 -626 308 -3 1 -36 16 -73 33 -38 18 -71
32 -73 32 -2 0 -27 11 -56 24 -179 83 -632 259 -833 322 -44 15 -89 30 -100
35 -11 4 -92 31 -180 58 -141 44 -212 65 -345 101 -19 5 -68 19 -109 31 -41
11 -81 22 -90 24 -9 2 -45 11 -81 20 -36 9 -72 18 -80 20 -8 2 -73 17 -145 34
-71 16 -141 32 -155 35 -14 3 -36 8 -50 11 -14 3 -38 8 -55 11 -16 2 -46 9
-65 14 -19 5 -55 12 -80 15 -24 4 -47 8 -50 10 -3 2 -23 6 -45 9 -22 4 -66 11
-98 17 -32 5 -70 12 -85 14 -15 2 -67 10 -117 19 -49 8 -114 18 -144 21 -30 4
-61 8 -70 10 -23 4 -109 15 -156 20 -22 2 -56 6 -75 9 -77 11 -375 38 -575 52
-49 3 -119 8 -155 10 -76 6 -966 14 -971 10z"/>
</g>
</svg>
